<svg xmlns="http://www.w3.org/2000/svg" width="114" height="24" viewBox="0 0 114 24">
  <defs>
    <style>
      .cls-1 {
        fill: #171717;
        fill-rule: evenodd;
      }
    </style>
  </defs>
  <path class="cls-1" d="M10.049,3.6C3.927,2.246-.668,6.873.7,13.022a6.8,6.8,0,0,0,5.106,5.143c6.1,1.382,10.7-3.249,9.347-9.416A6.757,6.757,0,0,0,10.049,3.6ZM7.942,16.063a4.836,4.836,0,0,1-4.911-5.188A4.836,4.836,0,0,1,7.94,5.686c2.875,0,4.884,2.133,4.884,5.188S10.817,16.063,7.942,16.063Zm18.78-12.7A6.431,6.431,0,0,0,21.705,5.4V3.472H19.241l0,14.8h2.544V10.523c0-3,1.715-4.785,4.589-4.786,2.549,0,3.9,1.45,3.9,4.193v8.343h2.543V9.742C32.814,5.748,30.537,3.363,26.722,3.364Zm17.988,0a6.473,6.473,0,0,0-5.1,2.229V3.47H37.149l0,20.021H39.7V16.252a6.49,6.49,0,0,0,5.017,2.154,7.186,7.186,0,0,0,7.319-7.536A7.173,7.173,0,0,0,44.71,3.361Zm-0.132,12.7a4.836,4.836,0,0,1-4.911-5.188,4.836,4.836,0,0,1,4.91-5.189,4.889,4.889,0,0,1,4.911,5.188A4.836,4.836,0,0,1,44.578,16.058ZM80.744,3.478l0,14.8H83.29l0-14.8H80.744Zm14.838-.11a6.433,6.433,0,0,0-5.017,2.041V3.476H88.1l0,14.8h2.544V10.528c0-3,1.715-4.785,4.589-4.786,2.549,0,3.9,1.45,3.9,4.193v8.343h2.544V9.746C101.674,5.752,99.4,3.368,95.582,3.368Zm16.969,11.7-0.318.289a2.778,2.778,0,0,1-1.855.638c-1.39,0-2.095-.754-2.095-2.243V5.671h4.251V3.412h-4.251V0.335h-2.534v13.52c0,2.81,1.61,4.421,4.416,4.421a4.767,4.767,0,0,0,3.166-1.073l0.183-.165ZM66.04,0.746A9.823,9.823,0,0,0,55.9,10.921a10.119,10.119,0,1,0,20.237,0A9.792,9.792,0,0,0,66.04.746Zm4.6,14.808H61.356a1.3,1.3,0,0,1-1.3-1.309V7.683A1.353,1.353,0,0,1,61.4,6.324h9.237a1.353,1.353,0,0,1,1.348,1.358V14.2A1.353,1.353,0,0,1,70.642,15.554Z"/>
</svg>
